<?xml version="1.0" encoding="iso-8859-1"?>
<!-- Generator: Adobe Illustrator 19.0.0, SVG Export Plug-In . SVG Version: 6.00 Build 0)  -->
<svg version="1.1" id="Layer_1" xmlns="http://www.w3.org/2000/svg" xmlns:xlink="http://www.w3.org/1999/xlink" x="0px" y="0px"
	 viewBox="0 0 512.003 512.003" style="enable-background:new 0 0 512.003 512.003;" xml:space="preserve">
<path style="fill:#BFA32C;" d="M356.316,160.791c-18.115-21.099-30.166-46.6-35.798-73.834
	C307.926,26.08,283.052,7.353,265.606,1.994V0.588c0,0-3.733-0.925-9.605-0.455c-5.872-0.471-9.602,0.455-9.602,0.455v1.406
	c-17.449,5.36-42.323,24.083-54.912,84.963c-5.635,27.233-17.68,52.735-35.798,73.834c-32.11,37.399-77.362,107.743-66.457,198.581
	c15.106,125.804,102.486,153.405,166.769,152.615c48.845,0.791,151.664-26.808,166.769-152.615
	C433.675,268.534,388.426,198.186,356.316,160.791z"/>
<path style="fill:#FBD960;" d="M333.905,165.078c-18.115-19.815-30.166-43.764-35.798-69.342
	c-9.733-44.19-17.308-74.093-42.105-74.093c-24.794,0-32.369,29.904-42.102,74.093c-5.635,25.578-17.68,49.527-35.798,69.342
	c-32.11,35.122-77.26,117.239-66.457,186.498c18.711,119.935,89.663,135.229,144.357,137.669
	c54.694-2.44,125.65-17.734,144.357-137.669C411.164,282.317,366.014,200.2,333.905,165.078z"/>
<circle style="fill:#A05F32;" cx="256.001" cy="330.989" r="84.845"/>
<ellipse transform="matrix(-0.6842 -0.7293 0.7293 -0.6842 126.7083 767.9698)" style="opacity:0.1;enable-background:new    ;" cx="229.629" cy="356.551" rx="77.481" ry="59.372"/>
<g>
	<circle style="fill:#C48960;" cx="291.546" cy="277.777" r="17.779"/>
	<circle style="fill:#C48960;" cx="311.237" cy="320.455" r="11.606"/>
</g>
<path style="opacity:0.2;enable-background:new    ;" d="M124.713,402.383c-42.457-134.15,53.388-237.305,53.388-237.305
	c38.952-58.088,41.167-92.58,41.167-92.58c2.667-28.072,8.312-49.088,14.388-64.485c-15.323,9.96-32.427,31.818-42.173,78.941
	c-5.635,27.233-17.68,52.735-35.798,73.834c-32.106,37.402-77.359,107.746-66.454,198.584
	c15.106,125.804,102.486,153.405,166.769,152.615c21.669,0.349,53.948-4.911,84.489-21.823
	C247.446,500.848,151.076,485.662,124.713,402.383z"/>
<path style="opacity:0.1;enable-background:new    ;" d="M178.101,165.078c0,0-101.151,109.03-53.388,237.305
	c33.922,91.091,122.733,98.464,215.777,87.777c3.381-1.873,6.736-3.893,10.056-6.061c-89.657,8.337-182.025-8.091-205.177-88.879
	c-35.359-123.364,50.619-221.499,50.619-221.499c38.952-58.088,43.937-108.383,43.937-108.383
	c2.712-28.549,8.5-49.818,14.699-65.282c-5.055-0.237-8.222,0.531-8.222,0.531v1.406c-3.941,1.21-8.267,3.115-12.739,6.022
	c-6.077,15.397-11.721,36.413-14.388,64.485C219.268,72.501,214.034,124.58,178.101,165.078z"/>
<g style="opacity:0.3;">
	<circle style="fill:#FFFFFF;" cx="343.221" cy="183.103" r="21.339"/>
	<circle style="fill:#FFFFFF;" cx="368.547" cy="228.951" r="10.671"/>
</g>
<g>
</g>
<g>
</g>
<g>
</g>
<g>
</g>
<g>
</g>
<g>
</g>
<g>
</g>
<g>
</g>
<g>
</g>
<g>
</g>
<g>
</g>
<g>
</g>
<g>
</g>
<g>
</g>
<g>
</g>
</svg>
