<?xml version="1.0" standalone="no"?>
<!DOCTYPE svg PUBLIC "-//W3C//DTD SVG 20010904//EN"
 "http://www.w3.org/TR/2001/REC-SVG-20010904/DTD/svg10.dtd">
<svg version="1.0" xmlns="http://www.w3.org/2000/svg"
 width="512.000000pt" height="512.000000pt" viewBox="0 0 512.000000 512.000000"
 preserveAspectRatio="xMidYMid meet">

<g transform="translate(0.000000,512.000000) scale(0.100000,-0.100000)"
fill="#000000" stroke="none">
<path d="M2245 4758 c-200 -22 -403 -82 -604 -179 -222 -106 -393 -231 -576
-420 -329 -341 -510 -767 -532 -1249 -22 -505 172 -1026 514 -1380 40 -42 79
-92 88 -113 14 -34 14 -43 -5 -115 -15 -59 -143 -604 -235 -999 -4 -17 -1 -23
12 -23 10 -1 304 142 653 315 l635 317 260 2 c280 3 340 10 537 66 105 29 280
99 354 141 21 12 75 44 119 70 113 66 120 67 266 20 266 -84 521 -124 666
-103 193 27 328 120 368 254 19 66 19 197 0 272 -22 84 -78 185 -142 255 -89
99 -102 97 -46 -9 40 -77 48 -102 51 -159 6 -105 -27 -160 -123 -202 -92 -41
-234 -25 -474 53 -132 43 -368 156 -491 234 -105 67 -280 197 -380 283 -130
112 -401 372 -421 405 -14 24 -17 44 -12 115 10 175 -46 325 -189 496 -101
122 -513 541 -550 561 -37 19 -122 31 -117 16 2 -6 114 -142 249 -302 255
-304 290 -350 290 -387 0 -29 -66 -103 -92 -103 -16 0 -315 279 -582 543 -58
57 -78 66 -84 34 -2 -9 111 -159 262 -347 146 -182 266 -338 266 -346 0 -18
-99 -113 -118 -114 -11 0 -246 220 -559 524 -69 66 -74 69 -90 53 -16 -16 -16
-18 2 -41 11 -14 131 -163 268 -331 136 -168 247 -310 247 -314 0 -15 -78 -80
-103 -86 -13 -4 -39 0 -58 8 -35 14 -201 179 -440 436 -73 79 -135 138 -137
132 -2 -6 5 -42 17 -79 15 -50 39 -91 92 -162 196 -259 455 -539 563 -609 92
-60 170 -82 316 -90 148 -8 117 8 356 -192 205 -172 384 -306 512 -385 118
-73 128 -82 110 -100 -19 -19 -172 -79 -274 -109 -161 -47 -257 -57 -509 -53
-202 3 -236 1 -282 -15 -29 -10 -203 -95 -385 -188 -183 -93 -334 -169 -335
-169 -15 -1 55 282 128 519 10 35 19 83 19 108 0 44 -3 47 -96 136 -283 270
-436 533 -510 877 -26 122 -27 445 0 585 40 217 139 454 262 627 73 102 254
287 354 361 218 160 481 265 754 298 120 14 336 7 456 -16 654 -124 1152 -631
1277 -1300 24 -129 24 -388 -1 -520 -35 -191 -126 -425 -205 -529 -69 -93 -79
-136 -38 -173 27 -26 233 -123 259 -123 25 0 94 108 168 263 118 247 175 476
187 752 25 596 -227 1172 -682 1553 -411 345 -943 509 -1460 450z"/>
<path d="M2658 3918 c-47 -12 -103 -73 -112 -121 -26 -139 110 -239 239 -177
109 53 114 222 9 281 -39 23 -91 29 -136 17z"/>
<path d="M3155 3686 c-93 -44 -135 -112 -135 -219 0 -191 201 -295 374 -193
96 56 133 190 83 298 -55 121 -200 172 -322 114z"/>
<path d="M3423 2966 c-93 -42 -81 -198 17 -227 113 -34 210 81 150 178 -10 17
-28 36 -38 42 -35 19 -96 22 -129 7z"/>
</g>
</svg>
